:SAMPLES-PER-SECOND 30
:FULLY-SPECIFIED
:DEGREES
481
root  -63.8626 37.3316 15.6299 -138.237 -1.21671 179.853
RightUpLeg  -80.5247 -31.1121 24.5049
RightLeg  28.7626 -3.39243 -2.24982
RightFoot  5.68462 0.08255 -0.291001
RightToes  0.00048216 0.542163 -0.142577
Spine  70.6624 -2.88897 4.25792
Spine1  9.47507 3.28131 -8.64532
HEad  -41.3254 -4.90928 9.19516
LeftShoulder1  6.24325 -32.4309 -9.80285
LeftArm  -91.8413 -57.7792 19.6073
LeftForeArm  11.7419 -19.3895 -1.17122
LeftHand  -0.25398 0.0180481 5.50724
RightShoulder  1.04304 4.70888 4.87965
RightArm  -86.2565 74.1448 -27.2074
RightForeArm  -5.2377 10.698 2.98829
RightHand  -2.46534 11.3347 -17.4642
LeftUpLeg  -80.8287 23.6108 -36.7229
LeftLeg  36.6434 -3.38084 -2.32129
LeftFoot  -7.00499 -0.399085 11.6155
LeftToes  1.06246e-005 4.65856e-005 -8.18501e-006
482
root  -63.9241 37.3071 15.5838 -138.156 -1.33774 179.771
RightUpLeg  -80.5406 -31.1549 24.1096
RightLeg  28.9704 -3.64164 -2.416
RightFoot  5.61762 0.0459156 -0.0497985
RightToes  0.00048216 0.542163 -0.142577
Spine  70.6848 -2.94228 4.01477
Spine1  9.53829 3.03459 -8.66378
HEad  -40.9908 -4.2172 8.75384
LeftShoulder1  6.31383 -32.0118 -10.2551
LeftArm  -93.5018 -57.7883 20.1275
LeftForeArm  14.2123 -20.2144 -1.87556
LeftHand  -0.25398 0.0180481 5.50724
RightShoulder  1.04508 4.99223 4.42457
RightArm  -85.7619 73.8803 -26.3128
RightForeArm  -5.36335 10.9613 2.90387
RightHand  -2.42438 11.0217 -17.4965
LeftUpLeg  -80.8063 23.4083 -36.7692
LeftLeg  36.8241 -3.27384 -2.25236
LeftFoot  -7.16255 -0.384192 11.6728
LeftToes  1.06246e-005 4.65856e-005 -8.18501e-006
483
root  -63.9755 37.2801 15.5479 -137.791 -1.35532 179.599
RightUpLeg  -80.8683 -31.0402 23.7706
RightLeg  29.1151 -3.88071 -2.57241
RightFoot  5.6245 0.0258904 0.0848503
RightToes  0.00048216 0.542163 -0.142577
Spine  70.1985 -2.69826 3.73487
Spine1  9.90145 2.93333 -8.22326
HEad  -40.9196 -4.0565 8.21417
LeftShoulder1  6.32404 -31.832 -10.3904
LeftArm  -94.4811 -57.8354 20.3243
LeftForeArm  15.7143 -20.7081 -2.26805
LeftHand  -0.25398 0.0180481 5.50724
RightShoulder  0.986437 4.84551 3.87684
RightArm  -85.6468 73.7984 -25.2824
RightForeArm  -4.50282 11.4138 2.72143
RightHand  -2.36479 10.8644 -17.2427
LeftUpLeg  -80.9303 22.9974 -36.9842
LeftLeg  36.7941 -3.0921 -2.10372
LeftFoot  -7.28049 -0.375211 11.7792
LeftToes  1.06246e-005 4.65856e-005 -8.18501e-006
484
root  -64.0247 37.2753 15.5207 -137.625 -1.48148 179.528
RightUpLeg  -80.9553 -31.07 23.5913
RightLeg  29.1474 -4.03782 -2.66986
RightFoot  5.62545 0.0095433 0.194515
RightToes  0.00048216 0.542163 -0.142577
Spine  69.8603 -2.59354 3.62172
Spine1  10.0883 2.87708 -8.00121
HEad  -40.7964 -3.9913 7.91067
LeftShoulder1  6.14483 -31.7051 -9.9049
LeftArm  -94.6049 -58.0378 20.125
LeftForeArm  15.5396 -20.444 -1.98905
LeftHand  -0.25398 0.0180481 5.50724
RightShoulder  0.972046 4.86889 3.64407
RightArm  -85.3864 73.7604 -24.4915
RightForeArm  -4.12416 11.5356 2.6084
RightHand  -2.35577 10.8744 -17.1697
LeftUpLeg  -80.8936 22.7731 -37.1245
LeftLeg  36.6773 -3.02774 -2.04235
LeftFoot  -7.38362 -0.370632 11.9707
LeftToes  1.06246e-005 4.65856e-005 -8.18501e-006
485
root  -64.0833 37.3042 15.4967 -137.931 -1.81891 179.575
RightUpLeg  -80.4624 -31.4204 23.4256
RightLeg  29.037 -4.14181 -2.72115
RightFoot  5.603 -0.0217263 0.403543
RightToes  0.00048216 0.542163 -0.142577
Spine  70.0265 -2.90008 3.77404
Spine1  9.91455 2.75012 -8.32483
HEad  -40.4641 -3.66396 7.93453
LeftShoulder1  5.8837 -31.4846 -9.21063
LeftArm  -93.6321 -58.4361 19.8868
LeftForeArm  14.1699 -19.5203 -1.1013
LeftHand  -0.25398 0.0180481 5.50724
RightShoulder  1.05187 5.46191 3.78566
RightArm  -84.5946 73.5596 -23.9759
RightForeArm  -4.48691 10.951 2.54028
RightHand  -2.34352 10.8468 -17.1114
LeftUpLeg  -80.4332 22.8631 -37.0117
LeftLeg  36.5351 -3.11762 -2.10253
LeftFoot  -7.43925 -0.371352 12.1705
LeftToes  1.06246e-005 4.65856e-005 -8.18501e-006
486
root  -64.1441 37.3452 15.4723 -138.368 -2.19843 179.601
RightUpLeg  -79.751 -31.8343 23.11
RightLeg  28.8462 -4.33139 -2.81442
RightFoot  5.6249 -0.0568614 0.639474
RightToes  0.00048216 0.542163 -0.142577
Spine  70.184 -3.09553 4.02835
Spine1  9.94385 2.72653 -8.29213
HEad  -40.2836 -3.48862 7.86927
LeftShoulder1  5.74647 -31.4137 -8.81613
LeftArm  -92.3166 -59.0394 20.0015
LeftForeArm  12.3557 -18.3794 0.00852551
LeftHand  -0.25398 0.0180481 5.50724
RightShoulder  1.07352 5.80163 3.55611
RightArm  -83.9482 73.3538 -23.6077
RightForeArm  -5.04872 9.94393 2.38591
RightHand  -2.28953 10.6854 -16.8937
LeftUpLeg  -79.796 22.9896 -36.7872
LeftLeg  36.3639 -3.20338 -2.15634
LeftFoot  -7.4324 -0.376231 12.2896
LeftToes  1.06246e-005 4.65856e-005 -8.18501e-006
487
root  -64.1897 37.3715 15.4509 -138.558 -2.40002 179.531
RightUpLeg  -79.2817 -31.9891 22.634
RightLeg  28.7066 -4.65445 -2.99039
RightFoot  5.69013 -0.0845253 0.824755
RightToes  0.00048216 0.542163 -0.142577
Spine  69.9497 -2.82142 4.27635
Spine1  10.1945 3.04859 -7.73237
HEad  -40.2783 -4.00273 7.69946
LeftShoulder1  5.75583 -31.9758 -8.55083
LeftArm  -90.7484 -59.6863 19.9249
LeftForeArm  10.187 -17.2267 1.07979
LeftHand  -0.25398 0.0180481 5.50724
RightShoulder  0.997752 5.30638 3.34401
RightArm  -83.2591 73.3362 -23.2135
RightForeArm  -6.26996 9.00279 2.35021
RightHand  -2.28158 10.505 -17.0183
LeftUpLeg  -79.3766 22.9452 -36.6822
LeftLeg  36.1962 -3.16534 -2.11199
LeftFoot  -7.41349 -0.380143 12.3404
LeftToes  1.06246e-005 4.65856e-005 -8.18501e-006
488
root  -64.2187 37.3789 15.4406 -138.592 -2.42242 179.406
RightUpLeg  -78.9955 -31.9056 22.0022
RightLeg  28.7026 -5.03943 -3.21661
RightFoot  5.72629 -0.114457 1.02411
RightToes  0.00048216 0.542163 -0.142577
Spine  69.6386 -2.59253 4.48569
Spine1  10.0021 3.4751 -7.81695
HEad  -39.9654 -4.73464 7.89097
LeftShoulder1  5.76105 -32.8932 -8.09409
LeftArm  -87.6995 -60.1727 19.1573
LeftForeArm  7.5621 -15.9155 2.02069
LeftHand  -0.25398 0.0180481 5.50724
RightShoulder  1.02119 4.90172 4.271
RightArm  -81.5824 73.4101 -22.6284
RightForeArm  -8.51579 8.19027 2.66446
RightHand  -2.37166 10.3828 -17.7892
LeftUpLeg  -79.1578 22.8154 -36.6774
LeftLeg  36.0883 -3.02654 -1.99397
LeftFoot  -7.43415 -0.37896 12.3746
LeftToes  1.06246e-005 4.65856e-005 -8.18501e-006
489
root  -64.2462 37.3819 15.444 -138.777 -2.44916 179.285
RightUpLeg  -78.5475 -31.8246 21.1915
RightLeg  28.7985 -5.46039 -3.47657
RightFoot  5.72569 -0.150395 1.2635
RightToes  0.00048216 0.542163 -0.142577
Spine  69.2861 -2.74914 3.84721
Spine1  10.3808 2.78719 -7.76295
HEad  -39.8563 -3.43851 7.52069
LeftShoulder1  5.69154 -31.2772 -8.71436
LeftArm  -84.8763 -60.8969 21.0801
LeftForeArm  4.02354 -14.1994 2.65168
LeftHand  -0.25398 0.0180481 5.50724
RightShoulder  1.00653 5.75016 2.79466
RightArm  -81.3504 74.0734 -21.1265
RightForeArm  -10.2602 7.19413 2.3818
RightHand  -2.48001 10.3349 -18.6197
LeftUpLeg  -78.8218 22.7325 -36.5668
LeftLeg  36.0354 -2.85442 -1.85528
LeftFoot  -7.48991 -0.373723 12.4084
LeftToes  1.06246e-005 4.65856e-005 -8.18501e-006
490
root  -64.2795 37.3896 15.4567 -139.115 -2.57211 179.152
RightUpLeg  -77.9108 -31.8218 20.2405
RightLeg  28.9096 -5.97229 -3.79408
RightFoot  5.74777 -0.177028 1.44006
RightToes  0.00048216 0.542163 -0.142577
Spine  69.2739 -3.15797 3.83638
Spine1  10.0024 2.55299 -8.53086
HEad  -39.3277 -3.06869 7.85573
LeftShoulder1  5.59695 -30.974 -8.57926
LeftArm  -81.5075 -61.343 20.9382
LeftForeArm  2.48348 -12.9107 2.74489
LeftHand  -0.25398 0.0180481 5.50724
RightShoulder  1.16485 6.68837 3.447
RightArm  -79.5602 74.1071 -20.0473
RightForeArm  -11.3771 6.25683 2.5076
RightHand  -2.57187 10.4414 -19.1552
LeftUpLeg  -78.295 22.6664 -36.3488
LeftLeg  35.9626 -2.69661 -1.72708
LeftFoot  -7.53342 -0.370036 12.4474
LeftToes  1.06246e-005 4.65856e-005 -8.18501e-006
